<svg data-v-423bf9ae="" xmlns="http://www.w3.org/2000/svg" viewBox="0 0 561 90" class="iconLeftSlogan"><!----><!----><!----><g data-v-423bf9ae="" id="4559cfc0-8954-4c0e-985f-4f11079e0ac2" fill="#2B1200" transform="matrix(4.775695226609329,0,0,4.775695226609329,365.69675769975487,-14.231572343222119)"><path d="M4.02 3.55L4.02 3.55L4.02 3.55Q3.45 3.63 2.54 4.43L2.54 4.43L2.54 4.43Q1.64 5.23 1.24 5.79L1.24 5.79L1.24 5.79Q0.83 6.35 0.47 7.15L0.47 7.15L0.47 7.15Q0.11 7.94 0.29 9.11L0.29 9.11L0.29 9.11Q0.48 10.28 1.78 11.57L1.78 11.57L1.78 11.57Q3.08 12.86 4.61 12.76L4.61 12.76L6.17 10.92L5.96 10.76L5.43 11.32L5.43 11.32Q4.27 11.49 3.32 10.84L3.32 10.84L3.32 10.84Q2.37 10.19 1.77 9.01L1.77 9.01L1.77 9.01Q1.18 7.83 1.61 6.24L1.61 6.24L1.61 6.24Q2.01 4.81 3.36 4.87L3.36 4.87L3.36 4.87Q5.53 5.04 5.14 6.45L5.14 6.45L5.26 6.50L5.26 6.50Q6.57 5.30 6.60 4.96L6.60 4.96L6.60 4.96Q6.64 4.62 6.13 4.12L6.13 4.12L6.13 4.12Q5.62 3.61 5.11 3.54L5.11 3.54L5.11 3.54Q4.60 3.48 4.02 3.55ZM9.48 6.52L9.48 6.52Q8.65 7.02 7.90 8.07L7.90 8.07L7.90 8.07Q7.14 9.11 7.08 9.85L7.08 9.85L7.08 9.85Q7.03 10.59 7.81 11.61L7.81 11.61L7.81 11.61Q8.59 12.63 9.01 12.68L9.01 12.68L9.01 12.68Q9.78 12.04 10.26 11.63L10.26 11.63L10.26 11.63Q10.45 12.37 11.33 12.73L11.33 12.73L12.68 11.09L12.46 10.94L12.16 11.26L12.16 11.26Q11.81 11.42 11.59 11.14L11.59 11.14L11.59 11.14Q11.38 10.87 11.40 10.47L11.40 10.47L11.40 7.18L11.40 7.18Q11.42 6.68 11.76 6.51L11.76 6.51L9.48 6.52ZM8.69 7.60L10.35 7.60L10.11 8.07L10.11 8.32L10.11 11.25L10.11 11.25Q9.51 11.72 8.63 10.45L8.63 10.45L8.63 10.45Q7.76 9.17 8.69 7.60L8.69 7.60ZM13.94 6.54L12.60 8.20L12.78 8.33L12.78 8.33Q13.22 7.75 13.48 7.88L13.48 7.88L13.48 7.88Q13.74 8.00 13.70 8.77L13.70 8.77L13.70 11.55L13.70 11.55Q13.84 12.53 14.55 12.68L14.55 12.68L15.89 11.37L15.79 11.23L15.79 11.23Q15.09 11.67 15.08 11.01L15.08 11.01L15.08 8.33L15.08 8.33Q15.13 7.54 15.48 7.51L15.48 7.51L15.48 7.51Q15.84 7.47 16.23 8.21L16.23 8.21L17.38 7.31L17.38 7.31Q16.94 6.63 16.43 6.51L16.43 6.51L16.43 6.51Q15.93 6.39 15.58 6.71L15.58 6.71L15.58 6.71Q15.22 7.03 14.98 7.55L14.98 7.55L14.98 7.55Q14.87 6.67 13.94 6.54L13.94 6.54ZM22.13 6.40L22.13 6.40L22.13 6.40Q21.63 6.51 21.18 6.80L21.18 6.80L21.18 6.80Q20.73 7.10 20.47 7.39L20.47 7.39L20.47 7.39Q20.22 7.68 20.15 8.27L20.15 8.27L20.15 8.27Q20.08 8.87 20.47 9.30L20.47 9.30L20.47 9.30Q20.86 9.73 22.00 10.02L22.00 10.02L22.00 10.02Q23.14 10.31 23.38 10.59L23.38 10.59L23.38 10.59Q23.62 10.86 23.55 11.13L23.55 11.13L23.55 11.13Q23.47 11.40 23.25 11.50L23.25 11.50L23.25 11.50Q23.03 11.59 22.52 11.52L22.52 11.52L22.52 11.52Q22.02 11.44 21.55 11.19L21.55 11.19L21.55 11.19Q21.08 10.95 20.84 10.66L20.84 10.66L20.84 10.66Q20.59 10.36 20.83 9.98L20.83 9.98L20.75 9.87L19.82 10.81L19.82 10.81Q19.70 11.17 20.07 11.67L20.07 11.67L20.07 11.67Q20.43 12.16 20.94 12.42L20.94 12.42L20.94 12.42Q21.44 12.67 22.06 12.70L22.06 12.70L22.06 12.70Q22.67 12.74 23.08 12.38L23.08 12.38L23.08 12.38Q23.48 12.02 23.91 11.32L23.91 11.32L23.91 11.32Q24.34 10.63 24.32 10.14L24.32 10.14L24.32 10.14Q24.30 9.65 23.94 9.23L23.94 9.23L23.94 9.23Q23.58 8.80 22.34 8.51L22.34 8.51L22.34 8.51Q21.10 8.22 20.98 7.79L20.98 7.79L20.98 7.79Q20.87 7.36 21.38 7.24L21.38 7.24L21.38 7.24Q21.89 7.12 22.46 7.38L22.46 7.38L22.46 7.38Q23.04 7.64 22.61 8.24L22.61 8.24L22.72 8.26L23.75 7.16L23.75 7.16Q23.52 6.72 23.08 6.50L23.08 6.50L23.08 6.50Q22.64 6.29 22.13 6.40ZM24.81 5.36L24.81 5.36L24.82 8.72L24.82 11.53L24.82 11.53Q24.84 12.54 25.63 12.67L25.63 12.67L26.93 11.40L26.79 11.27L26.39 11.60L26.39 11.60Q26.12 11.48 26.15 10.58L26.15 10.58L26.15 8.01L26.65 7.59L26.65 7.59Q27.83 7.55 27.84 8.99L27.84 8.99L27.84 11.50L27.84 11.50Q27.83 12.50 28.60 12.65L28.60 12.65L29.90 11.39L29.76 11.21L29.37 11.58L29.37 11.58Q29.13 11.55 29.13 10.77L29.13 10.77L29.14 8.06L29.14 8.06Q29.12 7.14 28.55 6.75L28.55 6.75L28.55 6.75Q27.98 6.37 27.38 6.47L27.38 6.47L26.09 7.69L26.09 4.98L26.09 4.98Q26.04 3.52 26.58 3.11L26.58 3.11L26.48 2.98L26.48 2.98Q24.80 3.85 24.81 5.36ZM32.10 6.60L32.10 6.60L32.10 6.60Q31.75 6.77 30.99 7.54L30.99 7.54L30.99 7.54Q30.22 8.31 30.08 9.52L30.08 9.52L30.08 9.52Q29.94 10.73 30.77 11.70L30.77 11.70L30.77 11.70Q31.59 12.67 32.21 12.75L32.21 12.75L32.21 12.75Q32.83 12.82 33.30 12.39L33.30 12.39L33.30 12.39Q33.77 11.96 34.38 10.90L34.38 10.90L34.38 10.90Q34.99 9.84 34.88 8.90L34.88 8.90L34.88 8.90Q34.77 7.96 34.11 7.30L34.11 7.30L34.11 7.30Q33.46 6.65 32.95 6.54L32.95 6.54L32.95 6.54Q32.45 6.43 32.10 6.60ZM31.77 7.67L31.77 7.67L31.77 7.67Q32.42 7.57 33.13 8.30L33.13 8.30L33.13 8.30Q33.84 9.03 33.93 9.85L33.93 9.85L33.93 9.85Q34.02 10.67 33.68 11.09L33.68 11.09L33.68 11.09Q33.34 11.50 32.67 11.43L32.67 11.43L32.67 11.43Q32.01 11.35 31.45 10.31L31.45 10.31L31.45 10.31Q30.90 9.27 31.00 8.52L31.00 8.52L31.00 8.52Q31.11 7.78 31.77 7.67ZM37.41 13.36L37.41 13.36L37.41 12.10L37.41 12.10Q38.16 12.56 38.78 12.11L38.78 12.11L38.78 12.11Q39.41 11.67 40.14 10.66L40.14 10.66L40.14 10.66Q40.88 9.65 40.85 8.67L40.85 8.67L40.85 8.67Q40.82 7.70 39.86 6.95L39.86 6.95L39.86 6.95Q38.90 6.20 38.55 6.50L38.55 6.50L37.39 7.55L37.39 7.55Q37.12 6.58 36.37 6.44L36.37 6.44L35.42 7.64L35.08 8.01L35.29 8.24L35.77 7.73L35.77 7.73Q36.17 7.75 36.21 9.39L36.21 9.39L36.20 12.76L36.20 12.76Q36.18 13.92 35.23 14.88L35.23 14.88L35.33 14.98L35.33 14.98Q35.81 14.82 36.33 15.22L36.33 15.22L36.33 15.22Q36.85 15.61 37.48 15.53L37.48 15.53L38.53 14.23L38.34 14.17L38.34 14.17Q37.60 14.61 36.40 13.80L36.40 13.80L36.40 13.80Q36.96 13.79 37.41 13.36ZM37.66 10.35L37.39 10.73L37.39 8.05L37.89 7.63L37.89 7.63Q38.34 7.51 38.93 8.08L38.93 8.08L38.93 8.08Q39.52 8.65 39.70 9.74L39.70 9.74L39.70 9.74Q39.89 10.83 39.14 11.04L39.14 11.04L39.14 11.04Q38.38 11.25 37.66 10.35L37.66 10.35Z"></path></g><defs data-v-423bf9ae=""><linearGradient data-v-423bf9ae="" gradientTransform="rotate(25)" id="9a604756-14e4-4f72-9776-ebfbbf5fe32d" x1="0%" y1="0%" x2="100%" y2="0%"><stop data-v-423bf9ae="" offset="0%" style="stop-color: rgb(121, 35, 0); stop-opacity: 1;"></stop><stop data-v-423bf9ae="" offset="100%" style="stop-color: rgb(243, 112, 0); stop-opacity: 1;"></stop></linearGradient></defs><g data-v-423bf9ae="" id="f187ed78-0db4-4074-b84a-896ec18d0167" transform="matrix(3.527550013456535,0,0,3.527550013456535,-2.2629122332071177,-145.67732910076853)" stroke="none" fill="url(#9a604756-14e4-4f72-9776-ebfbbf5fe32d)"><path d="M71.9 59.185a7.743 7.743 0 1 1 15.486 0 7.743 7.743 0 0 1-15.486 0zm2.844 0a4.898 4.898 0 1 0 9.798-.002 4.898 4.898 0 0 0-9.798.002zm9.668 0a4.769 4.769 0 0 1-9.496.648c.41 2.174 2.361 3.818 4.707 3.818 2.575 0 4.674-1.981 4.784-4.466h.005zm-.848-1.846a4.334 4.334 0 1 1-7.877.071 4.23 4.23 0 0 1 7.877-.071zm-3.921-2.38a4.225 4.225 0 1 0 .002 8.45 4.225 4.225 0 0 0-.002-8.45zm-2.266 4.524l.95.152a1.35 1.35 0 0 0 1.527.91l.576.763c.044.075.123.109.181.076l.322-.18c.06-.033.072-.117.033-.192l-.344-.896a1.354 1.354 0 0 0 .023-1.78l.373-.881c.045-.073.032-.159-.024-.194l-.315-.188c-.058-.034-.142-.004-.184.068l-.605.744a1.357 1.357 0 0 0-1.553.871l-.95.117c-.085-.001-.154.051-.154.117l-.007.37c0 .067.066.122.151.123zm4.727-.209a2.478 2.478 0 0 1-.42 1.295l.821.557c.36-.532.569-1.159.593-1.815l-.994-.037zm-3.066-3.092l.333.71c.045.108.07.156.154.156h.233c.085 0 .109-.048.154-.156l.331-.71a.152.152 0 0 0-.155-.153h-.895a.153.153 0 0 0-.155.153zm-2.436 2.647l.622-.075a.374.374 0 0 1 .153-.037l.155-.019c.021-.014.032-.034.042-.064l.072-.221c.027-.081-.012-.119-.099-.195l-.574-.535a.156.156 0 0 0-.196.1l-.275.852a.151.151 0 0 0 .1.194zm1.764 3.138l.148-.769c.027-.114.036-.167-.034-.218l-.188-.137c-.068-.051-.115-.025-.217.035l-.686.38a.157.157 0 0 0 .034.217l.725.526a.154.154 0 0 0 .218-.034zm3.53-.708l-.687-.38c-.066-.039-.108-.063-.151-.062l.051.132c.104.208-.069.426-.285.529l.097.488a.154.154 0 0 0 .217.035l.724-.526a.157.157 0 0 0 .034-.216zm.416-3.576l-.574.535c-.089.076-.126.114-.1.195l.073.221c.024.082.08.091.195.101l.778.095a.154.154 0 0 0 .1-.195l-.277-.851a.153.153 0 0 0-.195-.101zm-1.827-.81l.068.027c.083-.021.192.006.349.088.223.107.312.205.32.312.135.112.256.237.363.374l.783-.61a3.45 3.45 0 0 0-1.545-1.123l-.338.932zm-2.786.8a2.498 2.498 0 0 1 1.104-.8l-.338-.934a3.477 3.477 0 0 0-1.548 1.121l.782.613zm-.099 2.894a2.458 2.458 0 0 1-.387-.973.262.262 0 0 1-.142-.236l-.001-.082-.884.031c.023.64.223 1.272.59 1.816l.824-.556zm2.721.991a2.453 2.453 0 0 1-1.359-.002l-.276.955a3.454 3.454 0 0 0 1.91.002l-.275-.955zm-4.353-2.373c0-.358.052-.703.146-1.031l.206.036c.108.021.159.029.167.004l.022-.069c.008-.025-.037-.047-.138-.095l-.188-.091a3.678 3.678 0 0 1 3.346-2.426l.032.204c.013.111.021.16.048.16h.072c.026 0 .032-.049.048-.16l.03-.204a3.675 3.675 0 0 1 3.342 2.432l-.187.09c-.103.048-.146.071-.139.097l.023.069c.008.026.059.018.167-.004l.203-.035a3.665 3.665 0 0 1-1.281 3.927l-.144-.147c-.076-.082-.111-.116-.134-.102l-.058.043c-.022.016.001.061.055.159l.097.183a3.67 3.67 0 0 1-2.063.633 3.658 3.658 0 0 1-2.069-.636l.098-.184c.054-.099.076-.144.054-.158l-.058-.043c-.021-.017-.058.019-.135.101l-.144.146a3.666 3.666 0 0 1-1.418-2.899zm3.29-.708a.814.814 0 1 1 .764 1.438.814.814 0 0 1-.764-1.438zm-66.405.708a7.743 7.743 0 1 1 15.484 0 7.743 7.743 0 0 1-15.484 0zm2.954 0a4.896 4.896 0 0 0 4.898 4.897 4.898 4.898 0 1 0-4.898-4.897zm9.668 0a4.769 4.769 0 0 1-9.495.648c.41 2.174 2.362 3.818 4.708 3.818 2.574 0 4.673-1.981 4.782-4.466h.005zm-8.724-1.776a4.23 4.23 0 0 1 7.875-.071 4.334 4.334 0 1 1-7.875.071zm3.954-2.45a4.225 4.225 0 0 0 0 8.45c2.333 0 4.223-1.891 4.223-4.224s-1.889-4.226-4.223-4.226zm-3.673 4.226c0-.358.051-.703.146-1.031l.205.036c.11.021.16.029.168.004l.022-.069c.008-.025-.036-.047-.137-.095l-.186-.091a3.675 3.675 0 0 1 3.346-2.426l.03.204c.014.111.022.16.047.16h.074c.026 0 .033-.049.048-.16l.03-.204a3.673 3.673 0 0 1 3.341 2.432l-.187.09c-.101.048-.146.071-.137.097l.022.069c.008.026.058.018.167-.004l.206-.035a3.667 3.667 0 0 1-1.282 3.927l-.144-.147c-.076-.082-.111-.116-.133-.102l-.059.043c-.022.016.001.061.055.159l.097.183a3.665 3.665 0 0 1-2.064.633 3.655 3.655 0 0 1-2.068-.636l.097-.184c.053-.099.076-.144.054-.158l-.058-.043c-.023-.017-.058.019-.134.101l-.143.146a3.653 3.653 0 0 1-1.423-2.899zm4.353 2.373a2.46 2.46 0 0 1-1.361-.002l-.275.955c.618.178 1.28.183 1.911.002l-.275-.955zm-2.721-.991a2.447 2.447 0 0 1-.42-1.295l-.992.035a3.46 3.46 0 0 0 .587 1.816l.825-.556zm.1-2.894c.102-.13.215-.248.337-.354.015-.106.097-.206.278-.303.184-.106.303-.138.396-.108l.092-.035-.338-.934a3.48 3.48 0 0 0-1.549 1.121l.784.613zm2.785-.8c.438.161.819.441 1.1.802l.784-.61c-.396-.506-.93-.9-1.545-1.123l-.339.931zm1.826.81l-.573.535c-.089.076-.126.114-.101.195l.073.221c.008.028.02.047.036.061l.135.017a.286.286 0 0 1 .135.037l.667.081a.156.156 0 0 0 .101-.195l-.277-.851a.155.155 0 0 0-.196-.101zm-.417 3.576l-.686-.38c-.101-.061-.147-.086-.217-.035l-.188.137c-.07.051-.062.105-.035.218l.149.769a.154.154 0 0 0 .217.035l.725-.526a.156.156 0 0 0 .035-.218zm-3.529.708l.098-.499c-.204-.103-.441-.235-.303-.51l.053-.141a.328.328 0 0 0-.137.062l-.685.38a.155.155 0 0 0 .033.217l.725.526a.153.153 0 0 0 .216-.035zm-1.765-3.138l.778-.095c.117-.01.17-.019.197-.101l.071-.221c.026-.081-.013-.119-.1-.195l-.574-.535a.157.157 0 0 0-.196.1l-.276.852a.153.153 0 0 0 .1.195zm2.438-2.647l.333.71c.046.108.068.156.155.156h.232c.084 0 .109-.048.154-.156l.332-.71a.153.153 0 0 0-.155-.153h-.895a.154.154 0 0 0-.156.153zm3.041 3.372a2.5 2.5 0 0 1-.396 1.016l.823.557a3.452 3.452 0 0 0 .591-1.815l-.89-.032a.484.484 0 0 1-.128.274zm-3.244 1.764l.58-.768c.309.054.637 0 .927-.174.294-.176.497-.445.592-.748l.947-.151c.084 0 .151-.057.15-.124l-.006-.369c-.002-.065-.072-.119-.155-.117l-.954-.118a1.355 1.355 0 0 0-1.559-.857l-.604-.742c-.044-.073-.125-.104-.182-.069l-.316.19c-.059.035-.069.12-.026.193l.374.886a1.353 1.353 0 0 0 .038 1.776l-.342.896c-.041.074-.027.159.032.193l.324.179c.059.033.138-.002.18-.076zm-.007-2.133a.813.813 0 1 1 0 0zm-17.837-.578c-.581-.6-.991-1.21-1.187-1.784l.085.01c.378.038.747.059 1.081.114a4.43 4.43 0 0 0 .612 1.491c.285.023.647.039 1.111.043a.874.874 0 0 1 .031.1s.04.11-.068.11c-.8-.003-1.314-.037-1.665-.084zm93.72-8.853c.533-.024 1.053-.034 1.374-.009.952.072 1.521.074 1.757.366a.594.594 0 0 0-.23.002c-.385.061-.684.16-1.089.064l-1.812-.423zM55.47 62.807c.509-.009 3.531.093 4.891.187.535.038 1.172.262 1.172.262s.35.14.691-.327c.78-1.074 1.017-1.462 1.426-2.333.305-.647.391-.885.019-.938-.371-.051-.294-.024-.294-.024l-2.1 2.871-5.805.302zm15.271-3.54l-.131 4.315h-8.83l-.767-.247h-2.715s-27.646.247-27.974.247c-.329 0-.442-.165-.442-.165v-3.664c4.883-.056 36.783-.437 40.859-.486zm-7.041-8.95c-.071.192-.166.429-.29.719-.527 1.247-1.794 4.207-4.31 8.214l-22.375.269c-.017-.822-.131-7.421.502-9.089l.009-.021c8.527.464 26.203-.085 26.203-.085l.261-.007zm5.571 8.812l-9.985.119c2.486-3.973 3.742-6.91 4.27-8.15.135-.318.237-.578.315-.792.129-.024.627-.114 2.556-.409a78.007 78.007 0 0 1 1.443-.209c.046 2.692.65 6.167 1.401 9.441zM67.882 48.59l-.006.22c-.433.083-.838.164-1.217.241a26 26 0 0 1-2.552.397l.003-.019c.006-.014.057-.102.13-.239a74.045 74.045 0 0 0 3.642-.6zm-29.08.643a2.063 2.063 0 0 0-1.013.294c-5.023-.298-11.149-.681-14.838-.631-5.483.072-9.975 1.743-12.639 2.91-2.667 1.166-3.596 1.79-2.652 1.536a17.835 17.835 0 0 0 2.745-.967c1.164-.517 3.069-1.459 6.426-2.015 8.11-1.341 11.407-.561 19.531-.006.229.017.465.031.71.045-.34.93-.463 3.224-.504 5.274-.036 1.814-.007 3.458.001 3.846l-6.688.078c-.615-4.592-4.04-8.358-9.238-8.386-5.633-.029-8.474 3.274-8.484 7.672-.057 1.475-.171 2.602-.574 3.575-.116.274-.253.227-.253.227-3.343-.26-6.555-1.729-8.549-3.402.288.021.606.032.941.029 1.35-.01.523-1.435-.135-2.243-.66-.809-1.813-.769-2.498-.866-.126-.02-.244-.035-.353-.054v-.051c0-.507 1.847-1.946 6.349-3.534-.13.064-.246.129-.34.191-.678.454-.821.652-.821.652s-1.613.736-2.278 1.06c-.666.326-1.09.852-1.062.95.028.1-.015.142.934-.397.712-.403 4.132-2.261 6.584-3.589 3.344-1.735 7.607-2.922 14.955-2.989 6.438-.057 9.634.323 9.634.323s.399.257 1.471.342c.788.063 1.713.101 2.638.126zm-18.231 1.621c4.922.025 8.252 3.402 9.116 7.659-.864-4.262-4.142-8.13-9.062-8.156-5.385-.028-8.274 3.456-8.519 7.588.243-4.103 3.082-7.121 8.465-7.091zm41.671-3.169l1.608.025-.933-.712c-.188.208-.388.414-.6.617l-.075.07zm17.173 3.034c5.933 0 8.692 2.608 9.091 5.835-.398-3.227-3.095-6.196-9.027-6.196-5.375 0-8.342 3.123-8.646 5.912.302-2.766 3.209-5.551 8.582-5.551zm-13.116-7.527l.154-.53s-6.135-.499-9.017-.464l.389.017c3.535.176 7.513.718 7.513.718l.865.112-.035.12c-.2-.024-.66-.077-1.662-.184-1.225-.153-4.027-.478-6.688-.609-2.954-.148-4.679 0-4.679 0s-2.176 1.501-4.082 3.036c-1.685 1.358-4.695 3.931-4.695 3.931s11.061-.083 11.959-.083c3.567 0 4.466-.401 5.891-1.754 1.765-1.678 2.629-3.68 2.856-4.268l.152.02c.117.014.246.029.386.043l-.086.279-.327-.251c-.071.179-.168.408-.286.663l.48.008-.126.394-.401-.306a10.1 10.1 0 0 1-.267.527l-.035.064.605.01-.158.468-.502-.382c-.113.203-.242.418-.385.64l.791.013c-.069.195-.14.387-.21.574l-.642-.491c-.142.216-.295.438-.462.661l1.032.017c-.098.248-.192.486-.287.706l-.817-.625c-.162.211-.335.425-.521.636l1.322.021a7.611 7.611 0 0 1-.35.71c-.235.417-.46.745-.719 1.001l-.189-.144c0-.167-.122-.291-.277-.291a.322.322 0 0 0-.087.013l-.565-.431c-.896.822-1.634 1.267-3.003 1.477l.052-.001c1.729-.019 2.836-.059 3.584-.16.114-.065.228-.138.34-.22.389-.285.685-.682 1.001-1.244.549-.971 1.2-2.934 1.625-4.321l.375.038c-.348 1.153-1.043 3.442-1.373 4.387l-.508.003a4.92 4.92 0 0 1-.964 1.212c-.324.301-.686.347-1.007.463a11.9 11.9 0 0 0 1.063-.103c.225-.028.47-.061.73-.095-.067.126-.118.217-.137.252-1.673.165-2.725.106-2.725.106s-15.016.418-20.345.128a572.41 572.41 0 0 1-2.868-.165 2.346 2.346 0 0 1 1.195-.291 2.708 2.708 0 0 0-.094-.01c2.245.052 4.388.017 4.388.017s2.168-1.813 4.48-3.583c2.312-1.77 4.331-3.169 4.331-3.169s.203-.149.168-.233c-.026-.068-.459-.286-1.631-.38 1.186-.306 3.84-.709 8.962-.303 3.065.244 5.147.461 6.543.632.146.114.28.239.381.378a.56.56 0 0 1 .043.071l.136.023c-.067-.145-.229-.309-.399-.451 1.93.241 2.456.39 2.456.39l.129.13c.726.042 2.24.138 2.815.226.188.028.538.116.981.68.693.053 1.445.119 1.808.174.177.028.497.107.902.585.727.056 1.543.126 1.925.184.173.026.482.103.876.553.703.054 1.476.121 1.841.177.181.028.506.107.919.603l.027.007c.664.053 1.366.114 1.711.167.172.026.478.102.867.543.712.054 1.501.122 1.875.179.185.029.525.113.959.652 4.367 1.229 7.16 1.869 10.994 2.765.73.171 1.317-.261 1.426.028.043.107.005.83-.2 1.859.167.005.279.143.254.311l-.245 1.581a.378.378 0 0 1-.36.311h-.251c-.369 1.055-.893 2.187-1.618 3.227a9.415 9.415 0 0 1-2.311 2.298h2.773c.171 0 .257.14.189.31l-.229.588a.51.51 0 0 1-.433.31h-4.71c-.724.243-1.494.4-2.304.458-.793.057-.649-.142-.649-.142l-.395-4.444c-.398-3.227-3.158-5.837-9.091-5.837-5.556 0-8.475 2.979-8.605 5.836l-.064 2.167-1.313.016c-.758-3.286-1.364-6.774-1.405-9.46.642-.083.461-.037.84-.124.555-.129 5.203-.518 10.436-.647 5.232-.128 13.897 1.307 15.258 1.371s-.114-.467-3.071-1.216c-2.954-.749-4.753-.965-10.801-1.279-4.873-.253-9.45.405-12.654 1.009l.005-.222a64.63 64.63 0 0 0 2.995-.651c1.553-.379-1.646-.254-2.755-.221l-.213.005c.08-2.282.215-4.788.215-4.788l-.169-.02s-.125 2.522-.202 4.812c-.756.016-1.996.028-3.006.038.356-1.043 1.077-3.47 1.397-4.546zm-3.678 5.284a.17.17 0 0 1 .17-.172.17.17 0 0 1 .171.172c0 .094-.074.17-.171.17a.17.17 0 0 1-.17-.17zm-1.331.12h1.25c.041.083.12.142.216.154H61.29c-.104 0-.104-.154 0-.154zm.792-1.491l-.129.125c-1.329 1.263-2.12 1.653-5.632 1.653-.73 0-8.172.054-10.937.075.269-.229.591-.502.943-.797 1.352-.136 3.987-.351 8.226-.431 4.874-.092 6.818-.436 7.529-.625zm-4.282-4.36c2.766.136 5.69.483 6.809.626a12.256 12.256 0 0 1-1.7 2.82c-.938-.058-4.232-.248-7.789-.347-3.742-.105-5.959.486-7.084.885.451-.375.885-.732 1.255-1.031 1.677-1.35 3.565-2.674 3.979-2.963.399-.027 2.012-.116 4.53.01zm-18.069 6.041c1.624.027 3.089.012 3.567.006.28-.234 1-.828 1.932-1.577-2.379.026-4.437.655-5.499 1.571zm-2.606-.083c.247.014.504.025.763.035 2.796-1.362 7.583-3.674 9.852-4.572.843-.333 2.186-.969 3.717-1.73a8.354 8.354 0 0 0-.556-.07c-.843.337-1.646.657-2.342.933l-3.666 1.58c-2.614 1.223-5.873 2.865-7.768 3.824zm14.65-6.301c-.642.452-2.259 1.603-4.052 2.975a147.264 147.264 0 0 0-4.391 3.508c-.777.012-4.829.061-7.327-.136a7.166 7.166 0 0 1-.972-.129l14.849-6.399c.902.014 1.5.093 1.872.176l.021.005z"></path></g><!----><g data-v-423bf9ae="" id="a77822a7-48aa-442e-be63-d1eb2b286a38" fill="#2B1200" transform="matrix(0.9757515616243293,0,0,0.9757515616243293,367.5818682876175,59.34029572045971)"><path d="M2.82 9.37L2.82 9.37Q2.72 9.50 2.47 9.70L2.47 9.70L2.47 9.70Q2.43 9.73 2.32 9.80L2.32 9.80L2.32 9.80Q2.27 9.84 2.21 9.87L2.21 9.87L2.21 9.87Q2.11 9.94 2.11 9.93L2.11 9.93L2.11 9.93Q2.02 9.97 1.91 10.03L1.91 10.03L1.91 10.03Q1.89 10.04 1.83 10.06L1.83 10.06L1.83 10.06Q1.82 10.07 1.72 10.11L1.72 10.11L1.72 10.11Q1.70 10.11 1.63 10.14L1.63 10.14L1.63 10.14Q1.55 10.16 1.54 10.17L1.54 10.17L1.54 10.17Q1.46 10.19 1.35 10.21L1.35 10.21L1.35 10.21Q1.33 10.23 1.18 10.25L1.18 10.25L1.18 10.25Q1.18 10.25 1.13 10.26L1.13 10.26L1.13 10.26Q1.16 10.26 1.01 10.27L1.01 10.27L1.01 10.27Q0.94 10.28 0.81 10.29L0.81 10.29L0.81 10.29Q0.84 10.29 0.66 10.29L0.66 10.29L0.66 10.29Q0.74 10.03 1.10 8.24L1.10 8.24L1.10 8.24Q1.42 8.20 1.70 8.05L1.70 8.05L1.70 8.05Q1.82 7.99 1.96 7.93L1.96 7.93L1.96 7.93Q1.97 7.92 1.98 7.92L1.98 7.92L1.98 7.92Q1.98 7.92 1.98 7.92L1.98 7.92L1.98 7.92Q2.06 7.88 2.19 7.84L2.19 7.84L2.19 7.84Q2.20 7.84 2.20 7.83L2.20 7.83L2.21 7.83L2.21 7.83Q2.23 7.83 2.29 7.81L2.29 7.81L2.29 7.81Q2.37 7.79 2.37 7.79L2.37 7.79L2.37 7.79Q2.41 7.79 2.45 7.78L2.45 7.78L2.45 7.78Q2.50 7.77 2.54 7.77L2.54 7.77L2.54 7.77Q2.54 7.77 2.54 7.77L2.54 7.77L2.54 7.77Q2.56 7.77 2.59 7.77L2.59 7.77L2.59 7.77Q2.63 7.77 2.64 7.77L2.64 7.77L2.64 7.77Q2.65 7.77 2.69 7.78L2.69 7.78L2.69 7.78Q2.82 7.81 2.93 7.88L2.93 7.88L2.93 7.88Q3.15 8.03 3.15 8.46L3.15 8.46L3.15 8.46Q3.15 8.93 2.82 9.37L2.82 9.37ZM2.44 6.15L2.44 6.15Q1.95 6.95 1.26 7.54L1.26 7.54L1.26 7.54Q1.40 6.95 1.67 6.02L1.67 6.02L1.67 6.02Q2.40 3.45 2.58 2.44L2.58 2.44L2.58 2.44Q3.10 2.95 3.17 3.83L3.17 3.83L3.17 3.83Q3.24 4.83 2.44 6.15L2.44 6.15ZM2.76 7.25L2.76 7.25Q3.37 6.67 3.83 5.95L3.83 5.95L3.83 5.95Q4.74 4.56 4.61 3.30L4.61 3.30L4.61 3.30Q4.50 2.15 3.49 1.62L3.49 1.62L3.49 1.62Q2.47 1.08 0.87 1.55L0.87 1.55L0.87 1.55Q0.14 1.76 0.19 1.96L0.19 1.96L0.19 1.96Q0.26 2.20 0.98 1.99L0.98 1.99L0.98 1.99Q1.16 1.93 1.11 1.95L1.11 1.95L1.11 1.95Q1.18 1.94 1.18 1.93L1.18 1.93L1.18 1.93Q1.20 1.93 1.21 1.93L1.21 1.93L1.21 1.93Q1.25 1.93 1.28 1.93L1.28 1.93L1.28 1.93Q1.26 1.97 1.25 2.02L1.25 2.02L1.25 2.02Q1.10 3.23 0.23 6.28L0.23 6.28L0.23 6.28Q-0.12 7.50-0.31 8.38L-0.31 8.38L-0.31 8.38Q-0.81 10.71-0.80 10.66L-0.80 10.66L-0.80 10.66Q-0.85 10.84-0.50 10.83L-0.50 10.83L-0.50 10.83Q-0.44 10.87-0.31 10.88L-0.31 10.88L-0.31 10.88Q1.23 10.93 2.86 10.16L2.86 10.16L2.86 10.16Q4.47 9.39 4.61 8.16L4.61 8.16L4.61 8.16Q4.74 6.88 2.76 7.25L2.76 7.25ZM16.23 2.21L16.23 2.21Q15.59 2.38 15.56 2.63L15.56 2.63L15.56 2.63Q15.50 3.01 15.35 4.51L15.35 4.51L15.35 4.51Q15.22 5.69 15.09 6.41L15.09 6.41L15.09 6.41Q14.68 8.57 13.58 9.83L13.58 9.83L13.58 9.83Q13.43 10.00 13.32 10.12L13.32 10.12L13.32 10.12Q13.06 9.61 13.02 8.40L13.02 8.40L13.02 8.40Q12.97 6.90 13.89 4.58L13.89 4.58L13.89 4.58Q14.57 2.88 14.74 2.40L14.74 2.40L14.74 2.40Q14.83 2.15 14.16 2.26L14.16 2.26L14.16 2.26Q13.38 2.41 13.30 2.66L13.30 2.66L13.30 2.66Q13.13 3.12 12.58 4.53L12.58 4.53L12.58 4.53Q12.11 5.71 11.90 6.43L11.90 6.43L11.90 6.43Q11.24 8.66 11.81 10.36L11.81 10.36L11.81 10.36Q11.91 10.68 12.11 10.83L12.11 10.83L12.11 10.83Q12.34 11.03 12.98 10.92L12.98 10.92L12.98 10.92Q13.99 10.73 14.90 9.71L14.90 9.71L14.90 9.71Q16.07 8.41 16.50 6.34L16.50 6.34L16.50 6.34Q16.66 5.55 16.80 4.29L16.80 4.29L16.80 4.29Q16.97 2.58 17.02 2.24L17.02 2.24L17.02 2.24Q17.04 2.11 16.65 2.14L16.65 2.14L16.65 2.14Q16.40 2.16 16.23 2.21L16.23 2.21ZM29.39 1.12L29.39 1.12Q29.35 0.90 28.62 1.07L28.62 1.07L28.62 1.07Q27.88 1.25 27.92 1.51L27.92 1.51L27.92 1.51Q28.11 2.73 27.88 4.12L27.88 4.12L27.88 4.12Q27.62 5.76 26.87 6.75L26.87 6.75L26.87 6.75Q26.71 6.95 26.46 7.16L26.46 7.16L26.46 7.16Q26.39 7.23 26.28 7.29L26.28 7.29L26.28 7.29Q26.29 7.29 26.21 7.34L26.21 7.34L26.20 7.34L26.20 7.34Q26.20 7.34 26.20 7.34L26.20 7.34L26.20 7.34Q26.13 7.36 26.06 7.38L26.06 7.38L26.05 7.37L26.05 7.37Q26.04 7.37 26.04 7.37L26.04 7.37L26.04 7.37Q26.00 7.36 25.94 7.35L25.94 7.35L25.94 7.35Q25.93 7.35 25.90 7.33L25.90 7.33L25.90 7.33Q25.89 7.33 25.87 7.33L25.87 7.33L25.87 7.33Q25.28 7.06 25.29 5.83L25.29 5.83L25.29 5.83Q25.29 4.47 26.25 1.59L26.25 1.59L26.25 1.59Q26.33 1.34 25.66 1.46L25.66 1.46L25.66 1.46Q24.89 1.60 24.81 1.85L24.81 1.85L24.81 1.85Q23.94 4.44 23.84 5.87L23.84 5.87L23.84 5.87Q23.74 7.12 24.25 7.65L24.25 7.65L24.25 7.65Q24.53 7.94 25.14 7.96L25.14 7.96L25.14 7.96Q25.28 7.97 25.44 7.96L25.44 7.96L25.44 7.96Q25.38 8.59 24.86 10.68L24.86 10.68L24.86 10.68Q24.79 10.94 25.44 10.82L25.44 10.82L25.44 10.82Q25.74 10.77 26.00 10.65L26.00 10.65L26.00 10.65Q26.28 10.52 26.30 10.42L26.30 10.42L26.30 10.42Q26.84 8.28 26.90 7.59L26.90 7.59L26.90 7.59Q26.94 7.57 26.95 7.57L26.95 7.57L26.95 7.57Q28.53 6.90 29.15 4.67L29.15 4.67L29.15 4.67Q29.65 2.84 29.39 1.12L29.39 1.12ZM51.72 1.12L51.72 1.12Q51.69 0.90 50.95 1.07L50.95 1.07L50.95 1.07Q50.22 1.25 50.26 1.51L50.26 1.51L50.26 1.51Q50.44 2.73 50.22 4.12L50.22 4.12L50.22 4.12Q49.95 5.76 49.20 6.75L49.20 6.75L49.20 6.75Q49.05 6.95 48.79 7.16L48.79 7.16L48.79 7.16Q48.73 7.23 48.62 7.29L48.62 7.29L48.62 7.29Q48.62 7.29 48.54 7.34L48.54 7.34L48.54 7.34L48.54 7.34Q48.54 7.34 48.54 7.34L48.54 7.34L48.54 7.34Q48.46 7.36 48.39 7.38L48.39 7.38L48.38 7.37L48.38 7.37Q48.38 7.37 48.37 7.37L48.37 7.37L48.37 7.37Q48.34 7.36 48.27 7.35L48.27 7.35L48.27 7.35Q48.26 7.35 48.23 7.33L48.23 7.33L48.23 7.33Q48.23 7.33 48.21 7.33L48.21 7.33L48.21 7.33Q47.61 7.06 47.62 5.83L47.62 5.83L47.62 5.83Q47.62 4.47 48.58 1.59L48.58 1.59L48.58 1.59Q48.67 1.34 48.00 1.46L48.00 1.46L48.00 1.46Q47.22 1.60 47.14 1.85L47.14 1.85L47.14 1.85Q46.27 4.44 46.17 5.87L46.17 5.87L46.17 5.87Q46.07 7.12 46.59 7.65L46.59 7.65L46.59 7.65Q46.86 7.94 47.47 7.96L47.47 7.96L47.47 7.96Q47.61 7.97 47.77 7.96L47.77 7.96L47.77 7.96Q47.71 8.59 47.19 10.68L47.19 10.68L47.19 10.68Q47.13 10.94 47.77 10.82L47.77 10.82L47.77 10.82Q48.08 10.77 48.33 10.65L48.33 10.65L48.33 10.65Q48.61 10.52 48.63 10.42L48.63 10.42L48.63 10.42Q49.17 8.28 49.23 7.59L49.23 7.59L49.23 7.59Q49.27 7.57 49.28 7.57L49.28 7.57L49.28 7.57Q50.87 6.90 51.48 4.67L51.48 4.67L51.48 4.67Q51.99 2.84 51.72 1.12L51.72 1.12ZM61.40 5.20L61.40 5.20Q61.28 6.64 61.01 7.92L61.01 7.92L61.01 7.92Q60.60 9.88 59.83 10.64L59.83 10.64L59.83 10.64Q59.74 10.55 59.66 10.38L59.66 10.38L59.66 10.38Q59.48 9.97 59.49 9.03L59.49 9.03L59.49 9.03Q59.52 7.34 60.09 5.48L60.09 5.48L60.09 5.48Q60.59 3.85 61.29 3.01L61.29 3.01L61.29 3.01Q61.37 3.25 61.41 3.62L61.41 3.62L61.41 3.62Q61.48 4.21 61.40 5.20L61.40 5.20ZM62.33 1.96L62.33 1.96Q62.13 1.79 61.39 2.05L61.39 2.05L61.39 2.05Q60.89 2.24 60.91 2.39L60.91 2.39L60.91 2.39Q60.66 2.48 60.48 2.63L60.48 2.63L60.48 2.63Q59.49 3.40 58.83 5.22L58.83 5.22L58.83 5.22Q58.28 6.70 58.09 8.50L58.09 8.50L58.09 8.50Q58.01 9.28 58.04 9.92L58.04 9.92L58.04 9.92Q58.08 10.77 58.44 11.13L58.44 11.13L58.44 11.13Q58.63 11.31 59.06 11.33L59.06 11.33L59.06 11.33Q59.60 11.36 60.42 11.02L60.42 11.02L60.42 11.02Q61.11 10.74 61.63 9.94L61.63 9.94L61.63 9.94Q62.10 9.21 62.41 7.85L62.41 7.85L62.41 7.85Q62.62 6.94 62.75 5.84L62.75 5.84L62.75 5.84Q62.91 4.44 62.91 3.78L62.91 3.78L62.91 3.78Q62.90 2.45 62.33 1.96L62.33 1.96ZM74.22 2.21L74.22 2.21Q73.59 2.38 73.55 2.63L73.55 2.63L73.55 2.63Q73.50 3.01 73.34 4.51L73.34 4.51L73.34 4.51Q73.22 5.69 73.08 6.41L73.08 6.41L73.08 6.41Q72.68 8.57 71.58 9.83L71.58 9.83L71.58 9.83Q71.43 10.00 71.32 10.12L71.32 10.12L71.32 10.12Q71.06 9.61 71.02 8.40L71.02 8.40L71.02 8.40Q70.96 6.90 71.89 4.58L71.89 4.58L71.89 4.58Q72.57 2.88 72.73 2.40L72.73 2.40L72.73 2.40Q72.82 2.15 72.15 2.26L72.15 2.26L72.15 2.26Q71.38 2.41 71.29 2.66L71.29 2.66L71.29 2.66Q71.13 3.12 70.57 4.53L70.57 4.53L70.57 4.53Q70.11 5.71 69.90 6.43L69.90 6.43L69.90 6.43Q69.23 8.66 69.80 10.36L69.80 10.36L69.80 10.36Q69.90 10.68 70.10 10.83L70.10 10.83L70.10 10.83Q70.33 11.03 70.98 10.92L70.98 10.92L70.98 10.92Q71.99 10.73 72.90 9.71L72.90 9.71L72.90 9.71Q74.07 8.41 74.50 6.34L74.50 6.34L74.50 6.34Q74.66 5.55 74.79 4.29L74.79 4.29L74.79 4.29Q74.97 2.58 75.02 2.24L75.02 2.24L75.02 2.24Q75.03 2.11 74.65 2.14L74.65 2.14L74.65 2.14Q74.40 2.16 74.22 2.21L74.22 2.21ZM85.46 5.31L85.46 5.31Q85.31 6.24 84.41 7.18L84.41 7.18L84.41 7.18Q84.22 7.38 83.98 7.58L83.98 7.58L83.98 7.58Q83.92 7.63 83.86 7.68L83.86 7.68L83.86 7.68Q83.64 7.59 83.38 7.58L83.38 7.58L83.38 7.58Q83.95 4.74 84.09 2.66L84.09 2.66L84.09 2.66Q84.36 2.80 84.59 2.99L84.59 2.99L84.59 2.99Q85.11 3.39 85.34 4.03L85.34 4.03L85.34 4.03Q85.57 4.65 85.46 5.31L85.46 5.31ZM82.48 2.40L82.48 2.40Q82.48 2.40 82.50 2.39L82.50 2.39L82.50 2.39Q82.49 2.40 82.48 2.40L82.48 2.40ZM87.42 11.42L87.42 11.42Q86.69 10.88 85.16 8.99L85.16 8.99L85.16 8.99Q84.49 8.17 84.37 8.05L84.37 8.05L84.37 8.05Q84.83 7.84 85.26 7.50L85.26 7.50L85.26 7.50Q86.46 6.56 86.82 5.41L86.82 5.41L86.82 5.41Q87.06 4.60 86.86 3.84L86.86 3.84L86.86 3.84Q86.65 3.07 86.02 2.53L86.02 2.53L86.02 2.53Q84.78 1.46 82.71 1.88L82.71 1.88L82.71 1.88Q82.58 1.91 82.38 1.96L82.38 1.96L82.38 1.96Q81.64 2.14 81.70 2.37L81.70 2.37L81.70 2.37Q81.76 2.58 82.48 2.40L82.48 2.40L82.48 2.40Q82.54 2.39 82.59 2.38L82.59 2.38L82.59 2.38Q82.63 2.37 82.67 2.37L82.67 2.37L82.67 2.37Q82.55 5.11 81.31 10.79L81.31 10.79L81.31 10.79Q81.26 11.04 81.89 10.92L81.89 10.92L81.89 10.92Q82.20 10.87 82.46 10.75L82.46 10.75L82.46 10.75Q82.74 10.62 82.76 10.53L82.76 10.53L82.76 10.53Q83.05 9.17 83.15 8.72L83.15 8.72L83.15 8.72Q83.15 8.72 83.15 8.72L83.15 8.72L83.15 8.72Q83.16 8.72 83.16 8.72L83.16 8.72L83.16 8.72Q83.27 8.85 83.95 9.70L83.95 9.70L83.95 9.70Q85.27 11.34 86.04 11.92L86.04 11.92L86.04 11.92Q86.26 12.09 86.98 11.83L86.98 11.83L86.98 11.83Q87.17 11.76 87.31 11.67L87.31 11.67L87.31 11.67Q87.55 11.52 87.42 11.42L87.42 11.42ZM108.68 3.48L108.68 3.48Q108.64 1.70 107.79 1.01L107.79 1.01L107.79 1.01Q107.32 0.64 106.43 0.68L106.43 0.68L106.43 0.68Q105.43 0.72 104.18 1.40L104.18 1.40L104.18 1.40Q104.00 1.50 104.03 1.60L104.03 1.60L104.03 1.60Q104.06 1.70 104.26 1.71L104.26 1.71L104.26 1.71Q104.76 1.72 105.29 1.44L105.29 1.44L105.29 1.44Q105.31 1.43 105.33 1.42L105.33 1.42L105.33 1.42Q105.37 1.39 105.45 1.35L105.45 1.35L105.45 1.35Q105.49 1.34 105.57 1.31L105.57 1.31L105.57 1.31Q105.59 1.29 105.70 1.26L105.70 1.26L105.71 1.26L105.71 1.26Q105.72 1.25 105.72 1.26L105.72 1.26L105.72 1.26Q105.72 1.25 105.75 1.25L105.75 1.25L105.75 1.25Q105.78 1.25 105.82 1.26L105.82 1.26L105.82 1.26Q105.83 1.26 105.85 1.26L105.85 1.26L105.85 1.26Q105.90 1.26 105.90 1.26L105.90 1.26L105.90 1.26Q105.98 1.28 106.08 1.31L106.08 1.31L106.08 1.31Q106.09 1.31 106.09 1.31L106.09 1.31L106.09 1.31Q106.09 1.31 106.09 1.31L106.09 1.31L106.09 1.31Q106.12 1.33 106.17 1.35L106.17 1.35L106.17 1.35Q106.22 1.37 106.31 1.43L106.31 1.43L106.31 1.43Q106.44 1.51 106.57 1.65L106.57 1.65L106.57 1.65Q106.76 1.85 106.92 2.23L106.92 2.23L106.92 2.23Q107.52 3.66 106.98 6.11L106.98 6.11L106.98 6.11Q106.63 7.70 105.92 8.97L105.92 8.97L105.92 8.97Q105.57 9.60 105.16 10.03L105.16 10.03L105.16 10.03Q104.99 10.22 104.77 10.39L104.77 10.39L104.77 10.39Q105.86 5.68 106.33 1.78L106.33 1.78L106.33 1.78Q106.33 1.71 106.11 1.70L106.11 1.70L106.11 1.70Q105.90 1.69 105.62 1.74L105.62 1.74L105.62 1.74Q104.90 1.87 104.86 2.17L104.86 2.17L104.86 2.17Q104.39 6.19 103.22 11.16L103.22 11.16L103.22 11.16Q103.15 11.42 103.80 11.30L103.80 11.30L103.80 11.30Q104.10 11.25 104.35 11.12L104.35 11.12L104.35 11.12Q104.55 11.03 104.61 10.97L104.61 10.97L104.61 10.97Q104.88 10.93 105.26 10.77L105.26 10.77L105.26 10.77Q106.83 10.12 107.81 7.78L107.81 7.78L107.81 7.78Q108.72 5.63 108.68 3.48L108.68 3.48ZM119.15 5.31L119.15 5.31Q119 6.24 118.10 7.18L118.10 7.18L118.10 7.18Q117.91 7.38 117.67 7.58L117.67 7.58L117.67 7.58Q117.61 7.63 117.55 7.68L117.55 7.68L117.55 7.68Q117.33 7.59 117.08 7.58L117.08 7.58L117.08 7.58Q117.64 4.74 117.78 2.66L117.78 2.66L117.78 2.66Q118.05 2.80 118.29 2.99L118.29 2.99L118.29 2.99Q118.80 3.39 119.03 4.03L119.03 4.03L119.03 4.03Q119.26 4.65 119.15 5.31L119.15 5.31ZM116.18 2.40L116.18 2.40Q116.18 2.40 116.19 2.39L116.19 2.39L116.19 2.39Q116.18 2.40 116.18 2.40L116.18 2.40ZM121.11 11.42L121.11 11.42Q120.38 10.88 118.85 8.99L118.85 8.99L118.85 8.99Q118.18 8.17 118.06 8.05L118.06 8.05L118.06 8.05Q118.52 7.84 118.95 7.50L118.95 7.50L118.95 7.50Q120.16 6.56 120.51 5.41L120.51 5.41L120.51 5.41Q120.76 4.60 120.55 3.84L120.55 3.84L120.55 3.84Q120.34 3.07 119.72 2.53L119.72 2.53L119.72 2.53Q118.47 1.46 116.40 1.88L116.40 1.88L116.40 1.88Q116.27 1.91 116.07 1.96L116.07 1.96L116.07 1.96Q115.34 2.14 115.40 2.37L115.40 2.37L115.40 2.37Q115.46 2.58 116.17 2.40L116.17 2.40L116.17 2.40Q116.24 2.39 116.29 2.38L116.29 2.38L116.29 2.38Q116.33 2.37 116.36 2.37L116.36 2.37L116.36 2.37Q116.25 5.11 115.01 10.79L115.01 10.79L115.01 10.79Q114.95 11.04 115.59 10.92L115.59 10.92L115.59 10.92Q115.90 10.87 116.15 10.75L116.15 10.75L116.15 10.75Q116.43 10.62 116.45 10.53L116.45 10.53L116.45 10.53Q116.74 9.17 116.84 8.72L116.84 8.72L116.84 8.72Q116.85 8.72 116.85 8.72L116.85 8.72L116.85 8.72Q116.85 8.72 116.85 8.72L116.85 8.72L116.85 8.72Q116.96 8.85 117.65 9.70L117.65 9.70L117.65 9.70Q118.97 11.34 119.73 11.92L119.73 11.92L119.73 11.92Q119.96 12.09 120.67 11.83L120.67 11.83L120.67 11.83Q120.86 11.76 121.00 11.67L121.00 11.67L121.00 11.67Q121.25 11.52 121.11 11.42L121.11 11.42ZM132.21 1.42L132.21 1.42Q131.50 1.19 130.31 1.57L130.31 1.57L130.31 1.57Q128.80 2.06 128.24 3.77L128.24 3.77L128.24 3.77Q127.89 4.83 128.07 6.11L128.07 6.11L128.07 6.11Q128.16 6.76 128.43 7.16L128.43 7.16L128.43 7.16Q128.01 7.38 127.72 7.70L127.72 7.70L127.72 7.70Q126.72 8.80 126.83 10.01L126.83 10.01L126.83 10.01Q126.90 10.70 127.37 11.11L127.37 11.11L127.37 11.11Q127.77 11.44 128.60 11.42L128.60 11.42L128.60 11.42Q129.43 11.39 130.14 10.95L130.14 10.95L130.14 10.95Q130.89 10.49 131.19 9.76L131.19 9.76L131.19 9.76Q131.25 9.61 130.97 9.60L130.97 9.60L130.97 9.60Q130.80 9.59 130.61 9.63L130.61 9.63L130.61 9.63Q129.86 9.76 129.75 10.02L129.75 10.02L129.75 10.02Q129.55 10.51 129.21 10.80L129.21 10.80L129.21 10.80Q129.19 10.81 129.18 10.82L129.18 10.82L129.18 10.82Q129.13 10.81 129.12 10.81L129.12 10.81L129.12 10.81Q129.06 10.79 128.97 10.75L128.97 10.75L128.97 10.75Q128.81 10.68 128.65 10.52L128.65 10.52L128.65 10.52Q128.37 10.23 128.29 9.63L128.29 9.63L128.29 9.63Q128.19 8.83 128.82 7.86L128.82 7.86L128.82 7.86Q128.91 7.74 129.01 7.62L129.01 7.62L129.01 7.62Q129.22 7.70 129.49 7.72L129.49 7.72L129.49 7.72Q129.90 7.74 130.39 7.51L130.39 7.51L130.39 7.51Q130.81 7.32 130.66 7.18L130.66 7.18L130.66 7.18Q130.37 6.90 129.94 6.84L129.94 6.84L129.94 6.84Q129.90 6.79 129.87 6.75L129.87 6.75L129.87 6.75Q129.66 6.45 129.55 5.89L129.55 5.89L129.55 5.89Q129.36 4.89 129.55 4.00L129.55 4.00L129.55 4.00Q129.81 2.70 130.58 2.04L130.58 2.04L130.58 2.04Q130.63 2.00 130.73 1.93L130.73 1.93L130.73 1.93Q130.74 1.93 130.74 1.93L130.74 1.93L130.74 1.93Q130.87 1.94 130.85 1.93L130.85 1.93L130.85 1.93Q131.43 2.02 131.31 2.62L131.31 2.62L131.31 2.62Q131.26 2.86 131.89 2.75L131.89 2.75L131.89 2.75Q132.20 2.69 132.45 2.58L132.45 2.58L132.45 2.58Q132.73 2.45 132.75 2.36L132.75 2.36L132.75 2.36Q132.89 1.63 132.21 1.42L132.21 1.42ZM141.38 7.89L141.38 7.89Q141.28 7.90 140.38 7.84L140.38 7.84L140.38 7.84Q140.79 6.63 141.24 5.57L141.24 5.57L141.24 5.57Q141.41 5.18 141.96 3.95L141.96 3.95L141.96 3.95Q141.93 4.61 141.75 7.85L141.75 7.85L141.75 7.85Q141.58 7.87 141.38 7.89L141.38 7.89ZM143.19 1.18L143.19 1.18Q143.01 1.09 142.63 1.16L142.63 1.16L142.63 1.16Q141.98 1.27 141.77 1.55L141.77 1.55L141.77 1.55Q141.57 1.80 140.79 3.58L140.79 3.58L140.79 3.58Q140.66 3.90 140.29 4.70L140.29 4.70L140.29 4.70Q139.98 5.42 139.80 5.83L139.80 5.83L139.80 5.83Q139.38 6.79 139.01 7.86L139.01 7.86L139.01 7.86Q138.09 7.97 137.44 8.37L137.44 8.37L137.44 8.37Q137.26 8.48 137.29 8.58L137.29 8.58L137.29 8.58Q137.31 8.67 137.52 8.68L137.52 8.68L137.52 8.68Q138.04 8.70 138.51 8.43L138.51 8.43L138.51 8.43Q138.65 8.41 138.70 8.41L138.70 8.41L138.70 8.41Q138.76 8.41 138.82 8.41L138.82 8.41L138.82 8.41Q138.50 9.39 138.18 10.53L138.18 10.53L138.18 10.53Q138.11 10.79 138.77 10.67L138.77 10.67L138.77 10.67Q139.07 10.62 139.32 10.49L139.32 10.49L139.32 10.49Q139.60 10.37 139.62 10.27L139.62 10.27L139.62 10.27Q139.89 9.32 140.16 8.48L140.16 8.48L140.16 8.48Q140.46 8.50 140.66 8.47L140.66 8.47L140.66 8.47Q141.36 8.39 141.72 8.46L141.72 8.46L141.72 8.46Q141.61 10.55 141.61 12.02L141.61 12.02L141.61 12.02Q141.61 12.10 141.83 12.11L141.83 12.11L141.83 12.11Q142.05 12.12 142.34 12.06L142.34 12.06L142.34 12.06Q143.07 11.91 143.07 11.62L143.07 11.62L143.07 11.62Q143.07 9.90 143.27 6.45L143.27 6.45L143.27 6.45Q143.47 3.00 143.47 1.27L143.47 1.27L143.47 1.27Q143.47 1.18 143.19 1.18L143.19 1.18ZM157.97 2.21L157.97 2.21Q157.93 2.05 157.38 2.15L157.38 2.15L157.38 2.15Q156.68 2.28 156.52 2.54L156.52 2.54L156.52 2.54Q155.64 4.03 154.70 6.51L154.70 6.51L154.70 6.41L154.70 6.41Q154.70 5.55 154.54 2.12L154.54 2.12L154.54 2.12Q154.53 2.03 154.30 2.02L154.30 2.02L154.30 2.02Q154.16 1.92 153.74 2.00L153.74 2.00L153.74 2.00Q153.03 2.13 152.89 2.39L152.89 2.39L152.89 2.39Q150.75 6.30 150.14 11.14L150.14 11.14L150.14 11.14Q150.13 11.27 150.51 11.23L150.51 11.23L150.51 11.23Q150.76 11.21 150.94 11.16L150.94 11.16L150.94 11.16Q151.58 10.99 151.61 10.75L151.61 10.75L151.61 10.75Q152.01 7.51 153.18 4.58L153.18 4.58L153.18 4.58Q153.23 5.81 153.24 6.71L153.24 6.71L153.24 6.71Q153.25 8.26 153.17 8.86L153.17 8.86L153.17 8.86Q152.98 10.15 152.97 10.99L152.97 10.99L152.97 10.99Q152.97 11.20 153.66 11.03L153.66 11.03L153.66 11.03Q154.33 10.86 154.42 10.66L154.42 10.66L154.42 10.66Q154.90 9.61 155.62 7.67L155.62 7.67L155.62 7.67Q156.41 5.54 156.78 4.66L156.78 4.66L156.78 4.66Q156.82 5.91 156.58 7.85L156.58 7.85L156.58 7.85Q156.24 10.57 156.21 11.04L156.21 11.04L156.21 11.04Q156.20 11.12 156.42 11.12L156.42 11.12L156.42 11.12Q156.64 11.13 156.92 11.08L156.92 11.08L156.92 11.08Q157.64 10.94 157.67 10.65L157.67 10.65L157.67 10.65Q157.73 9.88 157.90 8.54L157.90 8.54L157.90 8.54Q158.09 7.03 158.16 6.43L158.16 6.43L158.16 6.43Q158.40 3.95 157.97 2.21L157.97 2.21Z"></path></g></svg>